<svg xmlns="http://www.w3.org/2000/svg" version="1.1" xmlns:xlink="http://www.w3.org/1999/xlink" width="48" height="50"><svg xmlns="http://www.w3.org/2000/svg" version="1.1" xmlns:xlink="http://www.w3.org/1999/xlink" width="48" height="50"><svg version="1.1" xmlns="http://www.w3.org/2000/svg" xmlns:xlink="http://www.w3.org/1999/xlink" preserveAspectRatio="xMidYMid meet" viewBox="230 95 330 340" width="48" height="50">
<path fill="currentColor" opacity="1.000000" stroke="none" d="
M508.101013,321.324097 
	C506.660004,329.164978 507.524017,336.674103 507.388184,344.150848 
	C507.207336,354.105469 502.845825,358.021942 492.880127,356.738159 
	C488.424347,356.164154 483.935089,355.704742 479.545898,354.787201 
	C467.551483,352.279907 457.831238,355.685120 449.276276,364.520996 
	C436.184570,378.042572 422.592804,391.082977 409.100098,404.211273 
	C405.766754,407.454620 401.964661,410.211975 398.438782,413.262909 
	C395.590149,415.727814 392.627686,415.833679 389.855072,413.462250 
	C380.615997,405.560028 371.443939,397.578033 362.332642,389.528809 
	C360.235992,387.676575 359.604126,385.053680 359.623108,382.252777 
	C359.661530,376.587799 359.492889,370.919128 359.642456,365.258148 
	C359.719543,362.340240 358.755219,360.128967 356.627594,358.221680 
	C352.334198,354.372925 348.755981,349.540436 342.547699,348.407043 
	C341.780548,348.266968 340.896423,347.762878 340.426483,347.150970 
	C333.635406,338.308563 324.141113,343.409119 315.856812,342.415375 
	C313.808136,342.169617 313.057861,344.530060 311.754425,345.747131 
	C307.217560,349.983429 301.005310,350.418579 296.202972,346.844879 
	C291.878479,343.626770 290.501923,337.639587 293.018127,332.992645 
	C296.528412,326.509827 305.958374,324.718536 310.885590,330.275391 
	C314.230957,334.048248 317.780426,334.981049 322.306030,334.618378 
	C324.292603,334.459167 326.307495,334.508026 328.301300,334.615540 
	C332.563843,334.845367 335.534851,333.134064 339.246338,330.649750 
	C349.014404,324.111420 354.571564,314.115326 362.350250,306.020050 
	C363.467377,304.857452 364.833801,303.751892 364.866089,301.701935 
	C362.132568,300.001038 359.638702,301.104248 356.931458,302.069702 
	C349.900513,304.576996 343.289673,305.463196 335.891968,301.424927 
	C331.671692,299.121124 325.797211,298.432220 320.217896,299.626892 
	C313.688324,301.024963 306.937103,300.309814 300.281738,300.308136 
	C296.800171,300.307281 294.078369,300.931976 291.562592,303.904419 
	C287.198334,309.060883 278.921021,309.064026 274.606354,304.524597 
	C270.503540,300.208069 270.514221,292.889130 274.628723,289.188202 
	C279.985352,284.369995 287.330444,284.702240 291.830078,290.377991 
	C293.815582,292.882477 295.914093,293.784393 298.993683,293.886505 
	C307.098816,294.155182 315.296234,292.631439 323.311584,295.284393 
	C325.196289,295.908173 327.031494,294.258881 329.086365,293.314636 
	C322.469177,282.883850 327.988098,275.664185 335.891541,269.312378 
	C334.322693,267.909302 332.935608,268.376831 331.675995,268.374512 
	C309.347809,268.333435 287.019409,268.372253 264.691589,268.271027 
	C261.460175,268.256378 259.178894,269.025940 257.068878,271.783051 
	C252.804977,277.354675 244.623734,277.916473 239.794586,273.442505 
	C235.026016,269.024658 234.923859,261.643036 239.566040,256.928467 
	C244.077057,252.347076 252.155807,252.245117 256.562561,257.336273 
	C258.965759,260.112701 261.429962,260.772095 264.780090,260.760071 
	C288.107788,260.676636 311.436035,260.743500 334.763977,260.697510 
	C336.838562,260.693420 339.098206,261.309448 341.061951,259.673920 
	C340.814240,256.451508 338.047760,254.979126 336.274353,252.959976 
	C330.348877,246.213348 324.676483,239.198502 317.242035,233.926575 
	C314.938538,232.293137 313.028717,231.370621 309.994751,232.563751 
	C304.776337,234.615906 300.255188,232.353561 297.386597,228.069351 
	C295.260651,224.894196 292.849213,224.177963 289.457947,224.318848 
	C285.299438,224.491623 281.126251,224.438446 276.963013,224.336761 
	C272.112396,224.218292 267.900116,224.200562 264.321198,229.026215 
	C260.781616,233.798843 252.452972,232.965652 248.196136,228.598831 
	C243.930862,224.223358 243.868515,217.500610 248.054367,213.310196 
	C252.339066,209.020828 260.671204,208.686966 264.749573,213.320068 
	C267.416473,216.349716 270.211945,217.185440 273.907654,217.021606 
	C278.065247,216.837296 282.241821,216.853485 286.401794,217.007538 
	C291.463745,217.194992 295.791687,216.592880 300.215424,213.080261 
	C307.481567,207.310699 317.375336,212.192581 318.158386,221.522018 
	C318.458344,225.095840 320.127869,227.185745 322.974609,228.392334 
	C325.776428,229.579910 327.019165,226.881256 328.616943,225.300903 
	C333.664398,220.308411 339.488770,216.028915 343.682129,209.201279 
	C334.784210,200.459213 326.021210,191.826477 317.223419,183.229355 
	C315.789642,181.828293 313.863953,181.931900 312.027924,181.935623 
	C300.197693,181.959579 288.367157,182.046677 276.537415,181.985352 
	C273.805664,181.971207 271.957336,182.881363 270.144012,185.005539 
	C265.589600,190.340652 257.554443,190.565796 252.775620,185.811783 
	C248.372620,181.431641 248.605072,174.143265 253.288193,169.741562 
	C258.205902,165.119324 265.739685,165.370102 270.079071,170.892334 
	C272.477783,173.944855 275.087097,174.692627 278.642853,174.638306 
	C288.138336,174.493225 297.643829,174.408432 307.132935,174.701187 
	C311.630249,174.839920 312.887543,173.163773 312.756470,168.885361 
	C312.491241,160.228790 312.771912,151.556808 312.629028,142.894470 
	C312.575714,139.662552 313.449738,137.184708 315.919006,134.979431 
	C322.130432,129.432053 328.198730,123.722015 334.246185,117.994629 
	C336.874695,115.505249 340.029114,114.850250 343.437042,114.836830 
	C351.268372,114.806007 359.100220,114.761421 366.931030,114.826332 
	C369.563080,114.848145 371.545166,114.175262 373.508881,112.140388 
	C379.242249,106.199387 386.897339,106.242363 392.006683,111.870445 
	C396.479553,116.797432 395.872620,123.740791 390.577332,128.222855 
	C385.003662,132.940521 377.298828,132.109589 372.594177,125.945839 
	C370.640656,123.386505 368.376221,122.392998 365.354828,122.431442 
	C362.022827,122.473839 358.568665,123.013161 355.377594,122.340500 
	C338.791290,118.844284 331.243958,131.835068 321.409180,140.642395 
	C320.764740,141.219498 320.410950,142.437119 320.403534,143.360657 
	C320.330536,152.493530 320.359375,161.627243 320.359375,171.113266 
	C325.473846,170.526093 328.978210,167.592316 332.807556,165.463150 
	C347.909576,157.066208 363.235626,165.642303 364.246979,183.108032 
	C364.782043,192.348709 364.297882,194.041794 357.170746,207.853668 
	C371.483704,211.799042 383.358704,206.571869 394.299896,197.933746 
	C396.140503,196.480591 395.637024,194.282135 395.640717,192.328339 
	C395.671997,175.832169 395.785065,159.334488 395.587189,142.840714 
	C395.537964,138.737518 396.620514,135.402481 399.137329,132.296661 
	C401.652527,129.192841 403.970520,125.930115 406.423859,122.775032 
	C408.992676,119.471413 411.041351,116.479980 409.929504,111.554832 
	C408.606384,105.693718 414.429932,100.022682 420.736664,99.730202 
	C426.970825,99.441086 432.133423,104.122742 432.333099,110.246338 
	C432.552338,116.968651 427.598419,122.655586 420.945221,121.904716 
	C416.861176,121.443794 415.179993,123.286079 413.247040,125.816772 
	C413.044891,126.081451 412.838867,126.345131 412.613586,126.589882 
	C405.530853,134.283783 402.320648,142.957764 403.099487,153.774963 
	C404.018555,166.539169 403.454529,179.422668 403.230743,192.249176 
	C403.161469,196.221466 403.965820,199.348480 407.975403,200.447937 
	C419.332062,203.562088 421.119415,211.336090 420.751892,222.005585 
	C420.481689,229.848801 418.672791,234.923645 411.303406,237.696579 
	C404.807617,240.140778 403.121582,244.823822 403.142761,251.734329 
	C403.197906,269.692505 404.670288,287.601440 404.513550,305.554504 
	C404.485657,308.750000 405.624146,311.413330 408.842743,312.775452 
	C409.913483,313.228607 410.862549,314.067352 411.963348,314.335968 
	C423.613373,317.178894 425.508789,325.947388 425.279602,336.045990 
	C425.272186,336.374512 425.311340,336.721283 425.415588,337.030273 
	C425.515900,337.327637 425.729004,337.586975 425.953552,337.966003 
	C428.276733,337.866882 429.725433,336.082245 431.441498,334.896454 
	C443.501892,326.563202 455.534027,318.188721 467.537415,309.773468 
	C470.071960,307.996613 472.725983,306.883179 475.873474,306.899323 
	C486.204224,306.952393 496.535278,306.944000 506.866241,306.941833 
	C509.664886,306.941254 512.201477,307.353821 513.504761,310.314240 
	C514.709167,313.050140 512.419250,314.201691 511.074188,315.751465 
	C509.743103,317.285126 508.633942,318.909485 508.101013,321.324097 
M347.117340,218.408981 
	C342.703156,222.701508 338.434692,227.159409 333.820526,231.225006 
	C331.020966,233.691742 330.961182,235.675552 333.415833,238.262146 
	C340.407654,245.629807 347.360962,253.034973 354.249329,260.499268 
	C356.307251,262.729279 357.954102,262.719299 359.979950,260.452057 
	C365.637146,254.120758 371.472778,247.948349 377.098541,241.589905 
	C378.796448,239.670883 381.319702,238.300507 381.968719,234.972687 
	C377.907196,233.496155 377.702332,230.015518 377.813629,226.363419 
	C377.874481,224.366913 377.693726,222.358475 377.831268,220.369919 
	C378.041412,217.332504 376.694183,216.191772 373.726868,216.234314 
	C366.566315,216.337051 359.403473,216.296082 352.241638,216.277969 
	C350.508087,216.273590 348.928589,216.562912 347.117340,218.408981 
M387.996582,317.618958 
	C389.445526,316.300903 392.610352,315.574280 390.518555,312.772675 
	C386.981934,308.035858 383.303284,303.369354 378.387604,298.954041 
	C370.469574,308.470581 362.841858,317.635620 355.218689,326.804443 
	C354.463104,327.713287 354.529907,328.699341 355.274353,329.517670 
	C360.402161,335.154175 360.607544,341.011780 355.855377,346.773163 
	C364.938812,357.100616 364.938812,357.100616 375.598816,349.792114 
	C376.010101,349.510132 376.397156,349.182068 376.835846,348.952606 
	C380.316986,347.131561 381.091400,344.310638 380.424866,340.579529 
	C379.696747,336.503387 379.438019,332.344269 378.948425,328.224426 
	C378.582489,325.145416 379.315369,322.678619 382.323059,321.154449 
	C384.094971,320.256500 385.718048,319.064850 387.996582,317.618958 
M393.136169,268.507019 
	C398.016327,260.274811 395.536499,251.452896 394.771484,242.896957 
	C394.604065,241.024429 391.358429,237.771027 388.600403,240.641830 
	C380.420135,249.156555 372.608276,258.025879 364.686890,266.787811 
	C363.584137,268.007568 363.284424,269.418854 364.530060,270.817291 
	C369.131714,275.983368 373.729431,281.152954 378.638733,286.669739 
	C383.589783,280.476715 388.140076,274.785034 393.136169,268.507019 
M417.047760,341.595215 
	C417.420166,337.090118 416.279785,332.729614 415.833893,328.301300 
	C415.565735,325.638184 414.318787,323.934387 411.925598,323.095306 
	C407.501007,321.543915 404.106995,318.210144 398.081573,321.149414 
	C390.110077,325.038055 387.715302,326.592377 388.219452,335.172791 
	C388.557587,340.927399 391.977112,344.614563 396.489441,347.361206 
	C401.241577,350.253815 406.064392,350.772705 410.631165,346.582214 
	C412.450195,344.913055 414.634491,343.641937 417.047760,341.595215 
M353.407990,198.687836 
	C357.268860,191.600311 356.725220,184.223724 354.309601,176.973343 
	C352.529388,171.630081 346.149994,167.740952 341.765747,169.603714 
	C335.769409,172.151413 330.184021,175.666306 324.349396,178.805954 
	C328.139984,184.019623 346.152527,201.520599 349.554016,203.356339 
	C350.666138,202.037384 351.826324,200.661453 353.407990,198.687836 
M388.497314,228.780502 
	C394.985107,233.809509 401.369659,236.391785 408.697906,229.797653 
	C411.949493,226.871780 414.849457,214.992752 411.673431,211.874939 
	C408.337494,208.600128 403.802765,206.834229 399.479187,205.224716 
	C396.847473,204.245041 394.697388,207.033722 392.462830,208.320831 
	C389.164215,210.220856 384.660431,211.328690 386.002441,216.894867 
	C386.907959,220.650574 384.692261,224.930725 388.497314,228.780502 
M334.369476,283.010986 
	C334.417603,286.919647 340.313782,295.321930 343.837341,296.503052 
	C349.133331,298.278320 353.641296,295.031219 353.668793,289.394226 
	C353.688202,285.422729 353.564484,281.448090 353.684998,277.480316 
	C353.776489,274.466553 352.328217,273.692627 349.529602,273.278259 
	C341.903076,272.149017 338.079285,276.859131 334.369476,283.010986 
M392.103851,354.403046 
	C388.092468,351.910980 384.500275,352.138947 380.859863,355.444702 
	C378.423187,357.657318 375.374908,359.182953 372.687042,361.135345 
	C366.919983,365.324249 365.572388,370.604767 368.537628,378.277802 
	C378.289185,371.401062 387.925018,364.605927 397.572296,357.802734 
	C396.008026,355.576599 394.243713,355.398651 392.103851,354.403046 
M370.318970,289.017700 
	C367.691284,285.962158 365.242737,282.721710 361.728699,280.050415 
	C360.385742,293.946869 362.097626,295.889984 372.144653,292.504730 
	C372.549652,291.110199 371.384186,290.442963 370.318970,289.017700 
M279.555267,299.818237 
	C281.956268,302.002930 284.284607,301.865204 286.383392,299.448883 
	C287.842285,297.769257 288.079224,295.902679 286.498047,294.121674 
	C285.063629,292.505981 283.248474,291.683594 281.233948,292.792358 
	C278.630798,294.225067 277.308868,296.291534 279.555267,299.818237 
M261.350098,182.413635 
	C264.607330,181.340912 266.825562,179.592484 264.966125,175.830063 
	C264.103333,174.084274 262.419464,173.125946 260.398407,173.494247 
	C258.217407,173.891693 256.724213,175.392914 256.561615,177.538467 
	C256.354736,180.268433 258.196167,181.710159 261.350098,182.413635 
M420.003937,106.781364 
	C416.857391,108.263275 415.020874,110.335098 417.565552,113.682129 
	C418.680481,115.148605 420.416840,115.941261 422.410004,115.119843 
	C424.214661,114.376122 425.617676,113.134827 425.541595,111.101807 
	C425.430420,108.130753 423.499878,106.804642 420.003937,106.781364 
M246.241119,269.126831 
	C248.728485,270.138336 250.395752,268.912994 251.767776,267.036499 
	C252.775375,265.658417 252.709671,264.187256 251.676270,262.871918 
	C249.904266,260.616425 247.688171,259.647736 245.245193,261.698547 
	C242.397263,264.089264 242.871750,266.553864 246.241119,269.126831 
M302.425507,222.336594 
	C303.392975,225.123001 304.959137,227.072098 308.270294,226.043365 
	C310.162231,225.455597 311.442841,224.029083 311.376129,222.015472 
	C311.303589,219.825623 309.915649,218.173706 307.807465,217.782120 
	C304.896332,217.241379 303.197937,218.934525 302.425507,222.336594 
M260.137634,218.529510 
	C256.170502,215.960098 253.096313,216.442749 252.333862,219.787537 
	C251.935272,221.536026 252.392242,223.130219 253.803909,224.251083 
	C255.200653,225.360123 256.809021,225.601288 258.432465,224.653900 
	C260.600891,223.388489 261.237274,221.525192 260.137634,218.529510 
M379.842926,122.718742 
	C382.303345,124.290848 384.601044,124.161827 386.243286,121.642647 
	C387.324860,119.983513 387.045563,118.158798 385.592163,116.680046 
	C384.140625,115.203156 382.401154,114.882408 380.671173,115.991608 
	C378.231964,117.555519 377.445068,119.637421 379.842926,122.718742 
M307.553436,339.066833 
	C308.057404,336.519684 306.678772,335.057404 304.626221,333.980042 
	C303.261902,333.263885 302.070374,333.641388 301.025421,334.610687 
	C298.918488,336.565125 298.251984,338.780182 300.477386,341.005554 
	C303.253815,343.782013 305.447754,342.412872 307.553436,339.066833 
M343.578613,336.265045 
	C342.549683,339.423462 344.033630,341.451660 346.828339,342.373047 
	C348.811584,343.026917 350.255096,341.512177 351.163635,339.892853 
	C352.157257,338.121826 351.813751,336.357483 350.226166,335.045593 
	C347.974121,333.184570 345.798737,333.102692 343.578613,336.265045 
z"></path>
<path fill="currentColor" opacity="1.000000" stroke="none" d="
M494.220581,361.511841 
	C506.424622,361.337860 512.546875,355.233521 512.607300,343.610779 
	C512.633301,338.612396 512.795166,333.604828 512.556763,328.617615 
	C512.308411,323.424194 512.527527,318.711090 517.500000,315.388733 
	C519.892334,313.790344 518.791626,311.158325 517.952698,308.972900 
	C516.533081,305.274536 517.387329,302.412415 520.941040,300.575836 
	C524.198181,298.892456 525.088135,296.578949 523.419250,293.235046 
	C522.755188,291.904480 522.372559,290.428619 521.909607,289.003357 
	C519.559204,281.766663 519.850403,281.046814 526.439026,276.914154 
	C529.542725,274.967346 532.541565,272.847870 535.693726,270.985626 
	C538.802795,269.148926 539.363281,267.085022 537.183777,264.070038 
	C531.816772,256.645630 526.810852,248.949844 521.232727,241.691330 
	C515.808167,234.632721 513.592163,227.404572 514.424316,218.153458 
	C516.890381,190.736221 506.768250,167.578812 487.682098,148.220200 
	C475.638275,136.004456 461.174042,127.663216 444.689636,122.827393 
	C443.164612,122.380035 441.299164,122.477257 440.199860,120.733871 
	C439.923157,118.735756 441.283936,117.036171 441.595184,115.108955 
	C442.143219,111.715858 443.930206,111.290222 446.954254,112.230858 
	C471.931763,120.000092 492.458618,133.880249 507.618835,155.480850 
	C519.164124,171.930740 524.578308,190.349289 525.929504,210.134216 
	C526.141907,213.244324 525.856934,216.537170 525.037170,219.536514 
	C523.555115,224.958862 525.385376,229.314377 528.355530,233.553650 
	C534.759583,242.694244 541.173645,251.828278 547.511841,261.014465 
	C552.811829,268.695892 552.196411,271.896698 544.644836,277.001953 
	C543.816833,277.561768 542.976868,278.104431 542.158752,278.678406 
	C539.033813,280.870789 535.037903,282.476959 533.032227,285.432098 
	C530.857239,288.636719 534.467041,292.223297 535.165161,295.736511 
	C535.973938,299.806488 534.772583,303.019073 531.482361,305.357666 
	C529.069580,307.072632 528.476807,309.156830 529.421021,311.825073 
	C530.751709,315.585388 529.900330,318.827881 526.726868,321.157623 
	C523.391174,323.606476 522.458496,326.934631 522.460815,330.757507 
	C522.463867,335.755676 522.521301,340.753876 522.512207,345.752014 
	C522.484436,361.021759 512.461975,371.020905 497.236725,371.423920 
	C490.155457,371.611389 483.305115,370.182159 476.457092,369.007599 
	C470.085480,367.914734 465.447815,370.202850 461.208679,374.351929 
	C444.302429,390.898956 427.407532,407.457550 410.505219,424.008575 
	C408.340118,426.128693 406.508942,428.451447 403.081787,425.274597 
	C398.493134,421.021179 398.281860,420.997620 402.843842,416.527863 
	C419.741302,399.972015 436.813751,383.589386 453.453125,366.778107 
	C460.207703,359.953766 467.920990,357.671112 477.028900,358.869781 
	C482.634857,359.607574 488.207977,360.594788 494.220581,361.511841 
z"></path>
<path fill="currentColor" opacity="1.000000" stroke="none" d="
M448.666016,211.000473 
	C448.661652,206.001328 448.850311,201.491302 448.600677,197.005661 
	C448.337982,192.284790 450.319305,189.108246 454.213165,186.685135 
	C460.153168,182.988770 465.838470,178.863754 471.899048,175.386337 
	C477.059509,172.425400 478.710602,168.260971 478.698914,162.570465 
	C478.689240,157.856201 476.882690,153.025177 478.886902,148.452957 
	C480.763947,147.808304 481.645172,148.985168 482.556000,149.866348 
	C500.269806,167.002472 509.624512,187.857574 510.332062,212.532486 
	C510.527771,219.358551 508.199036,224.437714 501.871002,228.169617 
	C492.273773,233.829514 483.118164,240.261154 473.955872,246.625412 
	C469.853119,249.475250 466.521545,248.925140 462.007019,247.067642 
	C451.026581,242.549698 446.976501,234.942169 448.580444,223.486404 
	C449.129608,219.563919 448.666809,215.499741 448.666016,211.000473 
z"></path>

</svg></svg><style>@media (prefers-color-scheme: light) { :root { filter: none; } }
@media (prefers-color-scheme: dark) { :root { filter: none; } }
</style></svg>